<svg width="17" height="16" viewBox="0 0 17 16" fill="none" xmlns="http://www.w3.org/2000/svg">
<g id="download-svgrepo-com 1" clip-path="url(#clip0_226_53)">
<g id="Group">
<g id="Group_2">
<path id="Vector" d="M15.427 10.6166C15.0807 10.6166 14.8019 10.8955 14.8019 11.2417V14.2566H2.28867V11.2417C2.28867 10.8955 2.00985 10.6166 1.66362 10.6166C1.3174 10.6166 1.03857 10.8955 1.03857 11.2417V14.8817C1.03857 15.2279 1.3174 15.5067 1.66362 15.5067H15.427C15.7732 15.5067 16.052 15.2279 16.052 14.8817V11.2417C16.052 10.8955 15.7732 10.6166 15.427 10.6166Z" fill="black"/>
<path id="Vector_2" d="M8.08559 11.3582C8.43795 11.7136 8.86997 11.5175 9.00172 11.3582L12.5957 7.49149C12.8317 7.23718 12.8164 6.84193 12.562 6.60601C12.3077 6.37008 11.9125 6.3854 11.6796 6.63971L9.17024 9.33906V1.21343C9.17024 0.8672 8.89141 0.588379 8.54519 0.588379C8.19896 0.588379 7.92014 0.8672 7.92014 1.21343V9.34213L5.41075 6.64277C5.17483 6.38846 4.77957 6.37621 4.52526 6.60907C4.27096 6.845 4.2587 7.24025 4.49156 7.49456L8.08559 11.3582Z" fill="black"/>
</g>
</g>
</g>
<defs>
<clipPath id="clip0_226_53">
<rect width="15.6875" height="15.6875" fill="white" transform="translate(0.701416 0.15625)"/>
</clipPath>
</defs>
</svg>
