<svg width="108" height="43" viewBox="0 0 108 43" fill="none" xmlns="http://www.w3.org/2000/svg">
<g id="Group">
<path id="Vector" d="M17.7461 0.568359L0 11.084V32.2077L12.5477 39.5871V33.1301L5.46722 28.9792V14.3125L17.7461 7.02536L30.0249 14.3125V28.9792L22.9444 33.1301V39.5871L35.4921 32.2077V11.084L17.7461 0.568359Z" fill="#FD4A36"/>
<path id="Vector_2" d="M14.3398 18.3713V34.2371V40.6941L17.7457 42.7235L21.1515 40.6941V39.495V18.3713L17.7457 20.4007L14.3398 18.3713Z" fill="white"/>
<path id="Vector_3" d="M14.25 11.9143V16.0652L17.7454 18.0946L21.2409 16.0652V11.9143L17.7454 9.79272L14.25 11.9143Z" fill="#FD4A36"/>
<g id="Group_2">
<path id="Vector_4" d="M46.0684 3.98145H49.9223V25.1973H46.0684V3.98145Z" fill="#FD4A36"/>
<path id="Vector_5" d="M52.3418 3.98145H63.7244V7.94789H59.9601V25.1973H56.0165V7.94789H52.3418V3.98145Z" fill="#FD4A36"/>
<path id="Vector_6" d="M65.6074 3.98145H76.99V7.94789H73.2257V25.1973H69.2821V7.94789H65.6074V3.98145Z" fill="#FD4A36"/>
<path id="Vector_7" d="M79.4102 3.98145H83.2641V25.1973H79.4102V3.98145Z" fill="#FD4A36"/>
<path id="Vector_8" d="M104.236 22.061L107.821 26.8577H103.161L101.368 24.4594C99.8445 25.2895 98.1416 25.7508 96.349 25.7508C93.2121 25.7508 90.7025 24.6438 88.6411 22.43C86.5797 20.2162 85.5938 17.6334 85.5938 14.5894C85.5938 12.56 86.042 10.7152 87.0279 8.96255C88.0138 7.30218 89.2685 5.91854 90.9714 4.90386C92.6743 3.88919 94.4669 3.42798 96.349 3.42798C99.3067 3.42798 101.816 4.53489 103.878 6.65648C105.939 8.87031 107.015 11.4531 107.015 14.5894C106.925 17.5411 106.029 20.0317 104.236 22.061ZM101.727 18.8325C102.533 17.5411 102.981 16.1575 102.981 14.5894C102.981 12.56 102.354 10.8997 101.01 9.51601C99.6652 8.13236 98.1416 7.39442 96.2594 7.39442C94.3772 7.39442 92.764 8.04012 91.4196 9.42376C90.1648 10.8074 89.4478 12.56 89.4478 14.5894C89.4478 16.8954 90.2544 18.8325 91.8677 20.1239C93.1225 21.2309 94.6461 21.6921 96.2594 21.6921C97.1557 21.6921 98.0519 21.5076 98.8586 21.1386L95.1839 16.2497H99.8445L101.727 18.8325Z" fill="#FD4A36"/>
</g>
<g id="Group_3">
<g id="Group_4">
<path id="Vector_9" d="M46.4258 31.9309H47.0532V35.2517H46.4258V31.9309Z" fill="white"/>
<path id="Vector_10" d="M47.6797 31.9309H48.3071L49.6515 34.1447V31.9309H50.2789V35.2517H49.6515L48.3071 33.1301V35.2517H47.6797V31.9309Z" fill="white"/>
<path id="Vector_11" d="M50.9961 31.9309H52.6094V32.5766H51.6235V33.1301H52.6094V33.7758H51.6235V35.2517H50.9961V31.9309Z" fill="white"/>
<path id="Vector_12" d="M54.6719 31.8386C55.12 31.8386 55.4785 32.0231 55.837 32.2998C56.1955 32.6688 56.2851 33.0378 56.2851 33.499C56.2851 33.9602 56.1059 34.4214 55.837 34.6982C55.5681 34.9749 55.12 35.1594 54.6719 35.1594C54.2237 35.1594 53.7756 34.9749 53.5067 34.6059C53.1482 34.2369 53.0586 33.868 53.0586 33.4068C53.0586 33.13 53.1482 32.7611 53.2378 32.5766C53.4171 32.2998 53.5964 32.1154 53.8652 31.9309C54.0445 31.9309 54.403 31.8386 54.6719 31.8386ZM54.6719 32.3921C54.403 32.3921 54.1341 32.4843 53.9549 32.6688C53.7756 32.8533 53.686 33.13 53.686 33.499C53.686 33.868 53.7756 34.1447 54.0445 34.3292C54.2237 34.5137 54.4926 34.6059 54.7615 34.6059C55.0304 34.6059 55.2993 34.5137 55.4785 34.2369C55.6578 33.9602 55.7474 33.7757 55.7474 33.4068C55.7474 33.13 55.6578 32.8533 55.4785 32.5766C55.2096 32.5766 54.9408 32.3921 54.6719 32.3921Z" fill="white"/>
<path id="Vector_13" d="M56.9119 31.9309H57.5393C57.8978 31.9309 58.1667 31.9309 58.2563 32.0232C58.4355 32.1154 58.5252 32.2076 58.6148 32.3921C58.7044 32.5766 58.7941 32.7611 58.7941 32.9456C58.7941 33.1301 58.7044 33.3146 58.6148 33.499C58.5252 33.6835 58.3459 33.7758 58.1667 33.868L58.8837 35.3439H58.2563L57.5393 33.9603H57.4497V35.3439H56.8223V31.9309H56.9119ZM57.5393 33.2223H57.7185C57.8978 33.2223 58.077 33.2223 58.077 33.1301C58.1667 33.0378 58.1667 32.9456 58.1667 32.8533C58.1667 32.7611 58.1667 32.7611 58.077 32.6689C58.077 32.5766 57.9874 32.5766 57.8978 32.5766C57.8082 32.5766 57.7185 32.5766 57.5393 32.5766H57.36V33.2223H57.5393Z" fill="white"/>
<path id="Vector_14" d="M59.7795 31.9309H60.4069L61.1239 34.237L61.8409 31.9309H62.4683L63.0061 35.2517H62.3787L62.0202 33.1301L61.3032 35.2517H60.7654L60.0484 33.1301L59.6899 35.2517H59.0625L59.7795 31.9309Z" fill="white"/>
<path id="Vector_15" d="M64.4403 31.9309H65.0677L66.3225 35.2517H65.6951L65.4262 34.606H64.0818L63.8129 35.2517H63.1855L64.4403 31.9309ZM64.7988 32.7611L64.3507 33.868H65.247L64.7988 32.7611Z" fill="white"/>
<path id="Vector_16" d="M66.502 31.9309H68.2945V32.5766H67.6671V35.2517H67.0397V32.5766H66.502V31.9309Z" fill="white"/>
<path id="Vector_17" d="M68.6523 31.9309H69.2797V35.2517H68.6523V31.9309Z" fill="white"/>
<path id="Vector_18" d="M71.4316 31.8385C71.8798 31.8385 72.2383 32.023 72.5968 32.2997C72.9553 32.6687 73.0449 33.0376 73.0449 33.4989C73.0449 33.9601 72.8657 34.4213 72.5968 34.698C72.2383 35.067 71.8798 35.1592 71.4316 35.1592C70.9835 35.1592 70.5354 34.9747 70.2665 34.6058C69.908 34.2368 69.8184 33.8678 69.8184 33.4066C69.8184 33.1299 69.908 32.7609 69.9976 32.5764C70.1769 32.2997 70.3561 32.1152 70.625 31.9307C70.8939 31.7462 71.1628 31.8385 71.4316 31.8385ZM71.4316 32.3919C71.1628 32.3919 70.8939 32.4842 70.7146 32.6687C70.5354 32.8532 70.4457 33.1299 70.4457 33.4989C70.4457 33.8678 70.5354 34.1446 70.8043 34.329C70.9835 34.5135 71.2524 34.6058 71.5213 34.6058C71.7901 34.6058 72.059 34.5135 72.2383 34.2368C72.4175 33.9601 72.5072 33.7756 72.5072 33.4066C72.5072 33.1299 72.4175 32.8532 72.2383 32.5764C71.9694 32.5764 71.7005 32.3919 71.4316 32.3919Z" fill="white"/>
<path id="Vector_19" d="M73.6719 31.9309H74.2993L75.6437 34.1447V31.9309H76.271V35.2517H75.6437L74.2993 33.1301V35.2517H73.6719V31.9309Z" fill="white"/>
<path id="Vector_20" d="M77.8848 31.9309H79.6773V32.5766H79.0499V35.2517H78.4225V32.5766H77.8848V31.9309Z" fill="white"/>
<path id="Vector_21" d="M80.0352 31.9309H81.8277V32.5766H80.6625V33.1301H81.8277V33.7758H80.6625V34.606H81.8277V35.2517H80.0352V31.9309Z" fill="white"/>
<path id="Vector_22" d="M85.3242 32.4843L84.8761 32.9455C84.6072 32.6688 84.2487 32.4843 83.8902 32.4843C83.6213 32.4843 83.3524 32.5765 83.0835 32.8533C82.9043 33.0377 82.725 33.3145 82.725 33.6834C82.725 33.8679 82.8147 34.1447 82.9043 34.2369C82.9939 34.4214 83.1732 34.5136 83.2628 34.6059C83.4421 34.6981 83.6213 34.7904 83.8006 34.7904C83.9798 34.7904 84.1591 34.7904 84.2487 34.6981C84.4279 34.6059 84.5176 34.5136 84.6968 34.3291L85.145 34.7904C84.8761 35.0671 84.6968 35.1593 84.5176 35.2516C84.3383 35.3438 84.0694 35.3438 83.8006 35.3438C83.2628 35.3438 82.9043 35.1593 82.5458 34.8826C82.1873 34.5136 82.0977 34.1447 82.0977 33.5912C82.0977 33.2222 82.1873 32.9455 82.2769 32.6688C82.3665 32.392 82.6354 32.2076 82.9043 32.0231C83.1732 31.8386 83.4421 31.7463 83.8006 31.7463C84.0694 31.7463 84.3383 31.8386 84.6072 31.9308C84.9657 32.1153 85.145 32.2998 85.3242 32.4843Z" fill="white"/>
<path id="Vector_23" d="M85.8613 31.9309H86.4887V33.1301H87.5642V31.9309H88.1916V35.2517H87.5642V33.7758H86.4887V35.2517H85.8613V31.9309Z" fill="white"/>
<path id="Vector_24" d="M88.9082 31.9309H89.5356L90.88 34.1447V31.9309H91.5074V35.2517H90.88L89.5356 33.1301V35.2517H88.9082V31.9309Z" fill="white"/>
<path id="Vector_25" d="M93.748 31.8385C94.1962 31.8385 94.5547 32.023 94.9132 32.2997C95.2717 32.6687 95.3613 33.0376 95.3613 33.4989C95.3613 33.9601 95.1821 34.4213 94.9132 34.698C94.5547 35.067 94.1962 35.1592 93.748 35.1592C93.2999 35.1592 92.8518 34.9747 92.5829 34.6058C92.2244 34.2368 92.1348 33.8678 92.1348 33.4066C92.1348 33.1299 92.2244 32.7609 92.314 32.5764C92.4933 32.2997 92.6725 32.1152 92.9414 31.9307C93.2103 31.7462 93.3895 31.8385 93.748 31.8385ZM93.6584 32.3919C93.3895 32.3919 93.1207 32.4842 92.9414 32.6687C92.7622 32.8532 92.6725 33.1299 92.6725 33.4989C92.6725 33.8678 92.7622 34.1446 93.031 34.329C93.2103 34.5135 93.4792 34.6058 93.748 34.6058C94.0169 34.6058 94.2858 34.5135 94.4651 34.2368C94.6443 33.9601 94.7339 33.7756 94.7339 33.4066C94.7339 33.1299 94.6443 32.8532 94.4651 32.5764C94.2858 32.5764 94.0169 32.3919 93.6584 32.3919Z" fill="white"/>
<path id="Vector_26" d="M95.9004 31.9309H96.5278V34.606H97.424V35.1594H95.9004V31.9309Z" fill="white"/>
<path id="Vector_27" d="M99.3945 31.8385C99.8427 31.8385 100.201 32.023 100.56 32.2997C100.918 32.6687 101.008 33.0376 101.008 33.4989C101.008 33.9601 100.829 34.4213 100.56 34.698C100.201 35.067 99.8427 35.1592 99.3945 35.1592C98.9464 35.1592 98.4983 34.9747 98.2294 34.6058C97.8709 34.2368 97.7812 33.8678 97.7812 33.4066C97.7812 33.1299 97.8709 32.7609 97.9605 32.5764C98.1398 32.2997 98.319 32.1152 98.5879 31.9307C98.8568 31.7462 99.1256 31.8385 99.3945 31.8385ZM99.3945 32.3919C99.1256 32.3919 98.8568 32.4842 98.6775 32.6687C98.4983 32.8532 98.4086 33.1299 98.4086 33.4989C98.4086 33.8678 98.4983 34.1446 98.7671 34.329C98.9464 34.5135 99.2153 34.6058 99.4842 34.6058C99.753 34.6058 100.022 34.5135 100.201 34.2368C100.38 33.9601 100.47 33.7756 100.47 33.4066C100.47 33.1299 100.38 32.8532 100.201 32.5764C99.9323 32.5764 99.6634 32.3919 99.3945 32.3919Z" fill="white"/>
<path id="Vector_28" d="M104.594 32.4843L104.146 32.9455C103.877 32.6688 103.518 32.4843 103.16 32.4843C102.801 32.4843 102.622 32.5766 102.353 32.7611C102.084 32.9455 101.995 33.2223 101.995 33.5912C101.995 33.868 102.084 34.1447 102.353 34.4214C102.533 34.6059 102.801 34.7904 103.16 34.7904C103.339 34.7904 103.518 34.7904 103.698 34.6982C103.877 34.6059 103.967 34.4214 104.056 34.2369H103.16V33.499H104.773V33.6835C104.773 33.9602 104.684 34.2369 104.594 34.5137C104.415 34.7904 104.235 34.9749 104.056 35.0671C103.787 35.1594 103.518 35.2516 103.25 35.2516C102.891 35.2516 102.622 35.1594 102.353 35.0671C102.084 34.8826 101.905 34.6982 101.726 34.4214C101.547 34.1447 101.457 33.868 101.457 33.499C101.457 33.0378 101.636 32.6688 101.905 32.3921C102.264 32.0231 102.712 31.8386 103.16 31.8386C103.429 31.8386 103.698 31.9309 103.967 32.0231C104.235 32.0231 104.415 32.2076 104.594 32.4843Z" fill="white"/>
<path id="Vector_29" d="M105.131 31.9309H105.758L106.386 33.1301L107.013 31.9309H107.64L106.744 33.7758V35.1594H106.117V33.7758L105.131 31.9309Z" fill="white"/>
</g>
</g>
<path id="Vector_30" d="M107.731 29.1636H46.0684V29.717H107.731V29.1636Z" fill="#FD4A36"/>
<g id="Group_5">
<g id="Group_6">
<path id="Vector_31" d="M46.1582 36.7275H47.7715V37.281H47.2337V39.7716H46.696V37.281H46.1582V36.7275Z" fill="white"/>
<path id="Vector_32" d="M48.2185 36.7275H48.8459C49.2044 36.7275 49.3837 36.7275 49.5629 36.8198C49.7422 36.912 49.8318 37.0043 49.9214 37.0965C50.0111 37.281 50.0111 37.3732 50.0111 37.5577C50.0111 37.7422 49.9214 37.9267 49.8318 38.0189C49.7422 38.1112 49.5629 38.2957 49.3837 38.2957L50.1007 39.6793H49.4733L48.7563 38.3879H48.6667V39.6793H48.1289V36.7275H48.2185ZM48.7563 37.9267H48.9355C49.1148 37.9267 49.2044 37.9267 49.2941 37.8345C49.3837 37.7422 49.3837 37.7422 49.3837 37.5577C49.3837 37.4655 49.3837 37.4655 49.2941 37.3732C49.2044 37.281 49.2044 37.281 49.1148 37.281C49.0252 37.281 48.9355 37.281 48.8459 37.281H48.6667V37.9267H48.7563Z" fill="white"/>
<path id="Vector_33" d="M51.5358 36.7275H52.0736L53.2387 39.7716H52.6113L52.3424 39.1259H51.0877L50.8188 39.7716H50.1914L51.5358 36.7275ZM51.8047 37.5577L51.4462 38.5724H52.2528L51.8047 37.5577Z" fill="white"/>
<path id="Vector_34" d="M53.6875 36.7275H54.2253V39.7716H53.6875V36.7275Z" fill="white"/>
<path id="Vector_35" d="M54.8516 36.7275H55.3893L56.6441 38.7569V36.7275H57.1819V39.7716H56.6441L55.3893 37.7422V39.7716H54.8516V36.7275Z" fill="white"/>
<path id="Vector_36" d="M57.8984 36.7275H58.4362V39.7716H57.8984V36.7275Z" fill="white"/>
<path id="Vector_37" d="M59.0645 36.7275H59.6022L60.857 38.7569V36.7275H61.3947V39.7716H60.857L59.6022 37.7422V39.7716H59.0645V36.7275Z" fill="white"/>
<path id="Vector_38" d="M64.9796 37.281L64.6211 37.6499C64.3522 37.3732 64.0833 37.281 63.7248 37.281C63.4559 37.281 63.1871 37.3732 63.0078 37.5577C62.8286 37.7422 62.7389 38.0189 62.7389 38.2956C62.7389 38.5724 62.8286 38.8491 63.0078 39.0336C63.1871 39.2181 63.4559 39.3103 63.8145 39.3103C63.9937 39.3103 64.173 39.3103 64.3522 39.2181C64.5315 39.1258 64.6211 39.0336 64.7107 38.8491H63.8145V38.2956H65.1589V38.3879C65.1589 38.6646 65.0692 38.9413 64.9796 39.1258C64.89 39.3103 64.7107 39.587 64.4418 39.6793C64.2626 39.7715 63.9937 39.8638 63.7248 39.8638C63.4559 39.8638 63.0974 39.7715 62.9182 39.6793C62.7389 39.587 62.4701 39.3103 62.3804 39.1258C62.2908 38.9413 62.2012 38.5724 62.2012 38.2956C62.2012 37.9267 62.2908 37.5577 62.5597 37.1887C62.8286 36.8197 63.2767 36.6353 63.8145 36.6353C64.0833 36.6353 64.3522 36.7275 64.5315 36.8197C64.5315 36.912 64.8003 37.0965 64.9796 37.281Z" fill="white"/>
<path id="Vector_39" d="M66.7715 36.7275H67.3092V39.7716H66.7715V36.7275Z" fill="white"/>
<path id="Vector_40" d="M68.0273 36.7275H68.5651L69.8199 38.7569V36.7275H70.3576V39.7716H69.8199L68.5651 37.7422V39.7716H68.0273V36.7275Z" fill="white"/>
<path id="Vector_41" d="M72.6868 37.1888L72.2387 37.5578C72.0595 37.3733 71.9698 37.281 71.7906 37.281C71.701 37.281 71.6113 37.281 71.6113 37.3733C71.5217 37.3733 71.5217 37.4655 71.5217 37.5578C71.5217 37.65 71.5217 37.65 71.6113 37.7423C71.7009 37.8345 71.7906 37.9267 72.0595 38.1112C72.2387 38.2957 72.418 38.388 72.418 38.4802C72.5076 38.5724 72.5972 38.7569 72.6868 38.8492C72.7765 38.9414 72.7765 39.0337 72.7765 39.2181C72.7765 39.4949 72.6868 39.6794 72.5076 39.8638C72.3283 40.0483 72.0595 39.9561 71.7906 39.9561C71.6113 39.9561 71.4321 39.8638 71.2528 39.7716C71.0736 39.6794 70.9839 39.4949 70.8047 39.3104L71.2528 39.0337C71.4321 39.3104 71.5217 39.4026 71.7906 39.4026C71.8802 39.4026 71.9698 39.4026 72.0595 39.3104C72.1491 39.2181 72.1491 39.2181 72.1491 39.1259C72.1491 39.0337 72.1491 38.9414 72.0595 38.9414C71.9698 38.8492 71.8802 38.7569 71.701 38.6647C71.3424 38.388 71.1632 38.2035 71.0736 38.019C70.9839 37.8345 70.8943 37.7423 70.8943 37.5578C70.8943 37.3733 70.9839 37.1888 71.1632 37.0043C71.3424 36.8198 71.5217 36.8198 71.7906 36.8198C71.9698 36.8198 72.0595 36.8198 72.2387 36.9121C72.3283 36.8198 72.5076 37.0043 72.6868 37.1888Z" fill="white"/>
<path id="Vector_42" d="M72.957 36.7275H74.5703V37.281H74.0326V39.7716H73.4948V37.281H72.957V36.7275Z" fill="white"/>
<path id="Vector_43" d="M74.9277 36.7275H75.4655V39.7716H74.9277V36.7275Z" fill="white"/>
<path id="Vector_44" d="M75.9141 36.7275H77.5273V37.281H76.9896V39.7716H76.4518V37.281H75.9141V36.7275Z" fill="white"/>
<path id="Vector_45" d="M77.8865 36.7275H78.4243V38.7569C78.4243 38.9414 78.4243 39.0336 78.4243 39.1259C78.4243 39.2181 78.5139 39.2181 78.6035 39.3103C78.6931 39.3103 78.7828 39.4026 78.8724 39.4026C78.962 39.4026 79.0516 39.4026 79.1413 39.3103C79.2309 39.2181 79.2309 39.2181 79.3205 39.1259C79.3205 39.0336 79.3205 38.9414 79.3205 38.6646V36.7275H79.8583V38.5724C79.8583 38.8491 79.8583 39.1259 79.7687 39.2181C79.7687 39.3103 79.679 39.4948 79.5894 39.5871C79.4998 39.6793 79.4102 39.7716 79.2309 39.8638C79.1413 39.956 78.962 39.956 78.7828 39.956C78.6035 39.956 78.3346 39.8638 78.245 39.7716C78.0658 39.6793 77.9761 39.4948 77.8865 39.4026C77.7969 39.3103 77.7969 38.9414 77.7969 38.6646V36.7275H77.8865Z" fill="white"/>
<path id="Vector_46" d="M80.3066 36.7275H81.9199V37.281H81.3822V39.7716H80.8444V37.281H80.3066V36.7275Z" fill="white"/>
<path id="Vector_47" d="M82.3672 36.7275H83.9805V37.281H82.905V37.8345H83.9805V38.3879H82.905V39.2181H83.9805V39.7716H82.3672V36.7275Z" fill="white"/>
<path id="Vector_48" d="M87.1174 36.7275C87.5655 36.7275 87.924 36.912 88.1929 37.1888C88.4618 37.4655 88.641 37.9267 88.641 38.3879C88.641 38.8491 88.4618 39.2181 88.1929 39.4948C87.924 39.7716 87.5655 39.956 87.1174 39.956C86.6693 39.956 86.3108 39.7716 86.0419 39.4948C85.773 39.2181 85.5938 38.7569 85.5938 38.3879C85.5938 38.1112 85.6834 37.8345 85.773 37.5577C85.8626 37.281 86.1315 37.0965 86.3108 37.0043C86.5796 36.7275 86.8485 36.7275 87.1174 36.7275ZM87.1174 37.281C86.8485 37.281 86.5796 37.3732 86.4004 37.5577C86.2211 37.7422 86.1315 38.0189 86.1315 38.2957C86.1315 38.6646 86.2211 38.9414 86.49 39.1259C86.6693 39.3103 86.8485 39.4026 87.1174 39.4026C87.3863 39.4026 87.6552 39.3103 87.8344 39.1259C88.0137 38.9414 88.1033 38.6646 88.1033 38.3879C88.1033 38.1112 88.0137 37.8345 87.8344 37.65C87.5655 37.3732 87.3863 37.281 87.1174 37.281Z" fill="white"/>
<path id="Vector_49" d="M89.1797 36.7275H90.7033V37.281H89.8071V37.8345H90.7033V38.3879H89.8071V39.7716H89.2693V36.7275H89.1797Z" fill="white"/>
<path id="Vector_50" d="M94.9151 39.4024L95.4529 40.1403H94.7359L94.467 39.7714C94.2878 39.8636 94.0189 39.9558 93.75 39.9558C93.3019 39.9558 92.9434 39.7714 92.5849 39.4946C92.316 39.2179 92.1367 38.7567 92.1367 38.3877C92.1367 38.111 92.2263 37.8343 92.316 37.5575C92.4056 37.2808 92.6745 37.0963 92.8537 37.0041C93.1226 36.8196 93.3915 36.8196 93.6604 36.8196C94.1085 36.8196 94.467 37.0041 94.7359 37.2808C95.0048 37.5575 95.184 38.0187 95.184 38.48C95.2736 38.7567 95.184 39.1257 94.9151 39.4024ZM94.5566 38.9412C94.6463 38.7567 94.7359 38.5722 94.7359 38.2955C94.7359 38.0187 94.6463 37.742 94.467 37.5575C94.2878 37.373 94.0189 37.2808 93.75 37.2808C93.4811 37.2808 93.2122 37.373 93.033 37.5575C92.8537 37.742 92.7641 38.0187 92.7641 38.2955C92.7641 38.6644 92.8537 38.9412 93.1226 39.1257C93.3019 39.3101 93.4811 39.4024 93.75 39.4024C93.9293 39.4024 94.0189 39.4024 94.1085 39.3101L93.5707 38.5722H94.2878L94.5566 38.9412Z" fill="white"/>
<path id="Vector_51" d="M95.8123 36.7275H96.35V38.7569C96.35 38.9414 96.35 39.0336 96.35 39.1259C96.35 39.2181 96.4397 39.2181 96.5293 39.3103C96.6189 39.3103 96.7086 39.4026 96.7982 39.4026C96.8878 39.4026 96.9774 39.4026 97.0671 39.3103C97.1567 39.2181 97.1567 39.2181 97.2463 39.1259C97.2463 39.0336 97.2463 38.9414 97.2463 38.6646V36.7275H97.7841V38.5724C97.7841 38.8491 97.7841 39.1259 97.6944 39.2181C97.6944 39.3103 97.6048 39.4948 97.5152 39.5871C97.4256 39.6793 97.3359 39.7716 97.1567 39.8638C97.0671 39.956 96.8878 39.956 96.7085 39.956C96.5293 39.956 96.2604 39.8638 96.1708 39.7716C95.9915 39.6793 95.9019 39.4948 95.8123 39.4026C95.7227 39.3103 95.7227 38.9414 95.7227 38.6646V36.7275H95.8123Z" fill="white"/>
<path id="Vector_52" d="M98.5 36.7275H100.113V37.281H99.0378V37.8345H100.113V38.3879H99.0378V39.2181H100.113V39.7716H98.5V36.7275Z" fill="white"/>
<path id="Vector_53" d="M100.65 39.8638V36.8198H101.099C101.367 36.8198 101.547 36.8198 101.726 36.9121C101.905 37.0043 102.084 37.0966 102.174 37.1888C102.264 37.281 102.353 37.4655 102.353 37.65C102.353 37.7423 102.353 37.8345 102.264 37.9267C102.174 38.019 102.174 38.1112 101.995 38.2035C102.174 38.2957 102.353 38.388 102.353 38.5724C102.443 38.6647 102.443 38.8492 102.443 39.0337C102.443 39.2181 102.443 39.4026 102.353 39.4949C102.264 39.5871 102.174 39.7716 101.995 39.7716C101.816 39.8638 101.636 39.8638 101.457 39.8638H100.65ZM101.278 37.281V37.9267H101.367C101.547 37.9267 101.636 37.9267 101.636 37.8345C101.726 37.7423 101.726 37.65 101.726 37.5578C101.726 37.4655 101.726 37.3733 101.636 37.3733C101.547 37.3733 101.457 37.281 101.367 37.281H101.278ZM101.278 38.4802V39.3104H101.457C101.726 39.3104 101.816 39.3104 101.905 39.2181C101.995 39.1259 101.995 39.0337 101.995 38.9414C101.995 38.8492 101.905 38.6647 101.816 38.6647C101.726 38.5724 101.547 38.5724 101.367 38.5724H101.278V38.4802Z" fill="white"/>
<path id="Vector_54" d="M103.07 36.7275H104.684V37.281H103.698V37.8345H104.773V38.3879H103.698V39.2181H104.773V39.7716H103.16V36.7275H103.07Z" fill="white"/>
<path id="Vector_55" d="M108 37.2809L107.642 37.6499C107.373 37.3732 107.104 37.1887 106.746 37.1887C106.477 37.1887 106.208 37.2809 106.029 37.4654C105.849 37.6499 105.76 37.9266 105.76 38.2033C105.76 38.3878 105.76 38.5723 105.849 38.7568C105.939 38.9413 106.029 39.0335 106.208 39.1258C106.387 39.218 106.566 39.218 106.746 39.218C106.925 39.218 107.104 39.218 107.194 39.1258C107.373 39.0335 107.463 38.9413 107.642 38.7568L108 39.218C107.821 39.4025 107.552 39.587 107.373 39.6792C107.194 39.7715 106.925 39.7715 106.656 39.7715C106.208 39.7715 105.849 39.587 105.491 39.3103C105.222 39.0335 105.043 38.5723 105.043 38.1111C105.043 37.8344 105.132 37.5576 105.222 37.2809C105.312 37.0042 105.581 36.8197 105.76 36.7275C106.029 36.543 106.298 36.543 106.566 36.543C106.835 36.543 107.015 36.6352 107.283 36.7275C107.552 36.8197 107.821 37.0964 108 37.2809Z" fill="white"/>
</g>
</g>
<path id="Vector_56" d="M23.123 33.3147L30.1139 33.2224L38.0907 42.9079L31.1894 43.0002L23.123 33.3147Z" fill="#FD4A36"/>
</g>
</svg>
