<svg width="17" height="17" viewBox="0 0 17 17" fill="none" xmlns="http://www.w3.org/2000/svg">
<g id="time-svgrepo-com 1" clip-path="url(#clip0_226_43)">
<g id="Group">
<path id="Vector" d="M8.27969 0.15625C3.71444 0.15625 0.000473022 3.87042 0.000473022 8.43567C0.000473022 13.0011 3.71444 16.7153 8.27969 16.7153C12.8449 16.7153 16.5591 13.0011 16.5591 8.43567C16.5591 3.87042 12.8447 0.15625 8.27969 0.15625ZM8.27969 15.5183C4.3746 15.5183 1.1973 12.341 1.1973 8.43567C1.1973 4.53037 4.3744 1.35327 8.27969 1.35327C12.185 1.35327 15.3621 4.53037 15.3621 8.43567C15.3621 12.341 12.185 15.5183 8.27969 15.5183Z" fill="black"/>
<path id="Vector_2" d="M10.6751 9.19778C10.6719 9.19778 10.6691 9.19778 10.6659 9.19778L8.87799 9.22452V4.54535C8.87799 4.21477 8.61006 3.94684 8.27948 3.94684C7.9489 3.94684 7.68097 4.21477 7.68097 4.54535V9.83221C7.68097 9.8334 7.68137 9.8346 7.68137 9.8358C7.68137 9.83779 7.68097 9.83959 7.68097 9.84118C7.68137 9.86552 7.68596 9.88846 7.68915 9.91181C7.69114 9.92637 7.69134 9.94133 7.69414 9.9557C7.69952 9.98143 7.7085 10.0054 7.71708 10.0295C7.72147 10.0421 7.72426 10.0553 7.72945 10.0672C7.73982 10.0918 7.75379 10.1141 7.76715 10.137C7.77334 10.1472 7.77793 10.1584 7.78451 10.1684C7.79967 10.1905 7.81783 10.2103 7.83578 10.2304C7.84337 10.2388 7.84955 10.2484 7.85753 10.2565C7.87688 10.2757 7.89863 10.2919 7.92037 10.3084C7.92915 10.315 7.93693 10.323 7.94591 10.3292C7.96945 10.3451 7.99519 10.3577 8.02092 10.3701C8.0299 10.3743 8.03788 10.3802 8.04706 10.384C8.07698 10.3966 8.10891 10.4054 8.14122 10.4132C8.14721 10.4146 8.1528 10.4174 8.15898 10.4185C8.19768 10.4263 8.23779 10.4307 8.27888 10.4307C8.28188 10.4307 8.28507 10.4307 8.28806 10.4307L10.6837 10.3948C11.0141 10.3898 11.278 10.1177 11.2732 9.78732C11.2686 9.45993 11.0015 9.19778 10.6751 9.19778Z" fill="black"/>
</g>
</g>
<defs>
<clipPath id="clip0_226_43">
<rect width="16.559" height="16.559" fill="white" transform="translate(0 0.15625)"/>
</clipPath>
</defs>
</svg>
