<svg width="25" height="25" viewBox="0 0 25 25" fill="none" xmlns="http://www.w3.org/2000/svg">
<g id="video-svgrepo-com 1">
<path id="Vector" d="M4.57555 4.79346C3.01122 4.79346 1.74308 6.0616 1.74308 7.62592V16.777C1.74308 18.3413 3.01122 19.6094 4.57555 19.6094H13.7286C15.2929 19.6094 16.5611 18.3413 16.5611 16.777V15.4006L20.5188 18.1125C21.2417 18.6079 22.2239 18.0902 22.2239 17.2138V7.18878C22.2239 6.31251 21.2419 5.79483 20.5189 6.28994L16.5611 9.0005V7.62592C16.5611 6.0616 15.2929 4.79346 13.7286 4.79346H4.57555ZM16.5611 13.8159V10.5849L20.9166 7.60207V16.8004L16.5611 13.8159ZM15.2538 7.62592V16.777C15.2538 17.6193 14.5708 18.3021 13.7286 18.3021H4.57555C3.73322 18.3021 3.05038 17.6193 3.05038 16.777V7.62592C3.05038 6.78359 3.73322 6.10075 4.57555 6.10075H13.7286C14.5709 6.10075 15.2538 6.78359 15.2538 7.62592Z" fill="#212121"/>
</g>
</svg>
